PathFileType	4	(X/Y/Z)	C:\Users\Basilio\Documents\Thesis Gigler\squatting_fais\c3dfiles\077\SLS_front_pre2\markers_experimental.trc
DataRate	CameraRate	NumFrames	NumMarkers	Units	OrigDataRate	OrigDataStartFrame	OrigNumFrames
200.000000	200.000000	4	60	mm	200.000000	518	2075
Frame#	Time	FHD			LBHD			RBHD			C7			T10			CLAV			LSHO			LUUPA			LMUPA			LDUPA			LLEP			LMEP			LRAD			LUL			LRFIN			RSHO			RUPA1			RMUPA			RDUPA			RLEP			RMEP			RUL			RUFIN			LASI			RASI			USACR			LSACR			RSACR			LTHI1			LTHI2			LTHI3			LTHI4			LLFC			LMFC			LTIB1			LTIB2			LTIB3			LTIB4			LLMAL			LHEE			LMT1			LMT2			LMT5			RTHI			RTHI2			RTHI3			RTHI4			RLFC			RMFC			RTIB1			RTIB2			RTIB3			RTIB4			RLMAL			RMMAL			RHEE			RMT1			RMT2			RMT5			RRAD			
		X1	Y1	Z1	X2	Y2	Z2	X3	Y3	Z3	X4	Y4	Z4	X5	Y5	Z5	X6	Y6	Z6	X7	Y7	Z7	X8	Y8	Z8	X9	Y9	Z9	X10	Y10	Z10	X11	Y11	Z11	X12	Y12	Z12	X13	Y13	Z13	X14	Y14	Z14	X15	Y15	Z15	X16	Y16	Z16	X17	Y17	Z17	X18	Y18	Z18	X19	Y19	Z19	X20	Y20	Z20	X21	Y21	Z21	X22	Y22	Z22	X23	Y23	Z23	X24	Y24	Z24	X25	Y25	Z25	X26	Y26	Z26	X27	Y27	Z27	X28	Y28	Z28	X29	Y29	Z29	X30	Y30	Z30	X31	Y31	Z31	X32	Y32	Z32	X33	Y33	Z33	X34	Y34	Z34	X35	Y35	Z35	X36	Y36	Z36	X37	Y37	Z37	X38	Y38	Z38	X39	Y39	Z39	X40	Y40	Z40	X41	Y41	Z41	X42	Y42	Z42	X43	Y43	Z43	X44	Y44	Z44	X45	Y45	Z45	X46	Y46	Z46	X47	Y47	Z47	X48	Y48	Z48	X49	Y49	Z49	X50	Y50	Z50	X51	Y51	Z51	X52	Y52	Z52	X53	Y53	Z53	X54	Y54	Z54	X55	Y55	Z55	X56	Y56	Z56	X57	Y57	Z57	X58	Y58	Z58	X59	Y59	Z59	X60	Y60	Z60	

519	2.59	-360.2163085937501	1837.744873046875	-1021.510864257813	-496.7073059082032	1730.07080078125	-1095.806396484375	-503.2061767578126	1718.247680664063	-949.4106445312502	-536.5536499023439	1573.050048828125	-1044.150390625	-488.295379638672	1235.725219726563	-1052.467529296875	-368.8394165039063	1547.68359375	-1035.936279296875	-386.4593811035157	1592.396240234375	-1207.837890625	-204.3301391601563	1547.498168945313	-1299.898559570313	-177.2917633056641	1578.863647460938	-1272.091796875	-135.0160675048828	1546.739624023438	-1301.65185546875	-70.89580535888673	1556.318725585938	-1292.945434570313	-66.90076446533205	1486.638305664063	-1265.7451171875	210.1336975097657	1587.371337890625	-1150.931274414063	221.9374084472657	1592.188232421875	-1229.199951171875	308.4675903320313	1615.111083984375	-1151.464721679688	-388.4692382812501	1563.978881835938	-869.5122070312502	-228.4129028320313	1521.011352539063	-767.1106567382814	-202.5324249267579	1550.686645507813	-797.7054443359377	-158.4791564941407	1524.157958984375	-765.0829467773439	-92.85374450683595	1533.325439453125	-773.9211425781252	-87.26939392089845	1460.071655273438	-803.6392822265627	201.5660095214844	1572.971557617188	-803.4884033203127	285.8153686523438	1582.339233398438	-885.4675903320315	-255.9514312744141	1067.981689453125	-1170.06103515625	-292.3407592773438	1101.581176757813	-890.253845214844	-479.9678649902345	1129.512451171875	-1050.699951171875	-479.201629638672	1099.134155273438	-1078.483520507813	-488.1982727050782	1096.442993164063	-1023.788146972656	-300.8199157714844	838.6590576171877	-1203.40283203125	-269.5652160644532	762.0270385742189	-1188.947875976563	-221.8454742431641	767.9012451171876	-1182.27099609375	-296.0242004394532	710.0793457031251	-1172.88232421875	-265.2031555175782	565.9090576171876	-1132.619262695313	-265.3276977539063	556.2718505859376	-998.898620605469	-259.2841491699219	347.3891296386719	-1037.566162109375	-285.4360351562501	298.0854492187501	-1107.359619140625	-258.7964782714844	296.1282653808594	-1068.256958007813	-278.1310729980469	222.9693298339844	-1030.80859375	-345.6822204589844	106.8203277587891	-1074.677734375	-405.6755981445314	76.93437957763673	-1022.819396972656	-195.5913085937501	54.03178787231447	-1005.296508789063	-191.2254943847657	64.14651489257814	-1047.31103515625	-323.5878906250001	122.0094680786133	-987.662292480469	-140.9116668701172	836.990905761719	-817.631042480469	-74.32430267333986	828.5877685546877	-819.8460693359377	-52.75950241088869	853.523376464844	-827.086608886719	-36.62846374511719	754.8890380859376	-827.7650146484377	7.543142318725588	706.2783813476564	-826.803161621094	37.20655822753907	706.7399291992189	-955.0280761718752	126.5414581298828	621.4223022460939	-841.6622314453127	116.7964859008789	522.1950683593751	-803.8132934570315	154.280014038086	541.0084228515626	-825.8919677734377	181.7123718261719	505.1705932617189	-864.6409301757815	227.2898254394532	318.4190368652344	-815.2867431640627	242.1812896728516	337.1477355957032	-904.2170410156252	200.6376647949219	245.6233062744141	-869.7919921875002	389.5313415527345	375.8450622558594	-864.9087524414065	386.8394775390626	374.1773681640626	-826.1878051757815	384.7193603515626	343.9987182617188	-780.069030761719	nan	nan	nan	
520	2.595	-360.0479125976563	1837.789672851563	-1021.107543945313	-496.4596252441407	1729.868041992188	-1095.527465820313	-502.9691772460939	1718.276123046875	-949.079040527344	-536.4065551757814	1573.049560546875	-1043.9091796875	-488.1598510742189	1235.753173828125	-1052.081298828125	-368.4682312011719	1547.759765625	-1035.70068359375	-386.3850402832032	1592.534790039063	-1207.643432617188	-204.2838745117188	1547.607421875	-1299.747436523438	-177.1843414306641	1579.04345703125	-1271.836791992188	-134.9975891113282	1546.880004882813	-1301.454467773438	-70.84209442138673	1556.473876953125	-1292.802124023438	-66.8488006591797	1486.824829101563	-1265.65673828125	188.9007263183594	1588.140625	-1153.692993164063	220.6286926269532	1592.982788085938	-1229.093872070313	308.2712707519532	1615.838134765625	-1150.815673828125	-388.3487854003907	1563.872802734375	-869.332458496094	-228.1908416748047	1520.886596679688	-766.9282226562501	-202.2730560302735	1550.59423828125	-797.402770996094	-158.2430572509766	1524.066162109375	-764.6878662109376	-92.6677932739258	1533.213745117188	-773.6248168945315	-87.09738922119142	1459.992797851563	-803.5145263671877	201.8345642089844	1572.832885742188	-803.1760253906252	286.0465087890626	1582.186157226563	-885.2300415039065	-256.1488342285157	1067.956909179688	-1170.268432617188	-292.0503540039063	1101.447875976563	-890.3792114257815	-479.8789062500001	1129.527099609375	-1050.411987304688	-479.0617065429689	1099.262573242188	-1078.175170898438	-487.6663818359376	1096.673217773438	-1023.41162109375	-301.3131713867188	838.4759521484377	-1203.47216796875	-270.0457153320313	762.1071166992189	-1189.109375	-222.3959197998047	767.8640136718751	-1182.564819335938	-296.7292175292969	710.2258300781251	-1172.930541992188	-265.4862670898438	565.7707519531251	-1132.784423828125	-265.2205200195313	556.2647705078126	-999.1129150390627	-259.2823791503907	347.3503723144532	-1037.764404296875	-285.6557922363282	298.0530395507813	-1107.422973632813	-258.9025573730469	295.9399108886719	-1068.440307617188	-278.1361083984376	222.8690185546876	-1030.907470703125	-345.7412719726563	106.8056030273438	-1074.606323242188	-405.6789550781251	76.96408081054689	-1022.794494628906	-195.5665130615235	54.01146316528322	-1005.319152832031	-190.575927734375	65.00755310058595	-1047.5009765625	-323.4489440917969	122.0194091796875	-987.653015136719	-140.7933349609375	836.7064208984377	-817.734069824219	-74.26725006103517	828.191101074219	-820.0291748046877	-52.48588943481447	853.3833618164065	-827.6857910156252	-36.65904998779298	754.6244506835939	-827.684265136719	7.320707798004152	705.7042236328126	-826.7612304687502	36.64303970336915	705.4894409179689	-955.0407714843752	125.3564224243164	619.8571166992189	-841.7144165039065	114.6676712036133	520.6613769531251	-803.658630371094	152.3778076171875	539.1766357421876	-825.7475585937502	178.9780578613282	502.8740234375001	-864.8522949218752	222.8621673583985	315.3967590332032	-815.416687011719	237.8114929199219	334.3201599121094	-904.0762329101565	195.2505187988282	243.1852416992188	-869.5914306640627	385.0753784179689	370.3682861328126	-865.4914550781252	381.8031311035157	367.9920043945313	-826.5158691406252	380.6191711425782	339.4220581054688	-780.3220825195315	nan	nan	nan	
521	2.6	-359.9679260253907	1838.058715820313	-1020.839172363281	-496.3020324707032	1730.076049804688	-1095.15771484375	-502.7372131347657	1718.304443359375	-948.8450317382815	-536.1709594726564	1573.377563476563	-1043.603393554688	-487.8601379394532	1235.85986328125	-1051.735961914063	-368.2159729003907	1547.890869140625	-1035.440795898438	-386.3434448242189	1592.757080078125	-1207.4345703125	-204.2053985595704	1547.7978515625	-1299.56005859375	-177.14404296875	1579.116943359375	-1271.622436523438	-134.8982543945313	1546.990478515625	-1301.313842773438	-70.95724487304689	1556.660278320313	-1292.75146484375	-66.79161834716798	1486.950439453125	-1265.557250976563	209.8961639404297	1587.974243164063	-1150.398315429688	221.6595764160157	1592.625244140625	-1228.695434570313	308.3984069824219	1615.921630859375	-1150.56640625	-388.103240966797	1563.859741210938	-869.0020751953127	-227.9341583251954	1520.732543945313	-766.6572875976564	-201.9400787353516	1550.577758789063	-797.1033935546877	-158.0413055419922	1523.895263671875	-764.4965820312501	-92.34678649902345	1533.22265625	-773.3950195312502	-86.90065002441408	1459.861328125	-803.3758544921877	202.1409454345704	1572.671752929688	-802.884704589844	286.3039245605469	1582.197509765625	-884.9927368164065	-256.2586669921876	1067.962768554688	-1170.446044921875	-291.6038513183594	1101.455688476563	-890.4646606445315	-479.757049560547	1129.851196289063	-1050.08251953125	-478.6211547851564	1099.286010742188	-1077.83154296875	-487.0811157226564	1096.955810546875	-1023.040954589844	-301.9012145996094	838.400817871094	-1203.508178710938	-269.7249755859376	761.6458740234376	-1188.869506835938	-222.7889862060547	767.8234863281251	-1182.823364257813	-296.9076538085938	710.1443481445314	-1172.956420898438	-265.9207153320313	565.7849731445314	-1132.886840820313	-265.3019104003907	556.3507080078126	-999.2509765625002	-259.3881225585938	347.2516479492188	-1037.94091796875	-285.9110107421876	298.0443115234376	-1107.378784179688	-259.0254211425782	295.9371337890626	-1068.582885742188	-278.1626892089844	222.8209381103516	-1031.0244140625	-345.7763977050782	106.8401489257813	-1074.564453125	-405.7207336425782	76.99887847900392	-1022.666442871094	-195.5929565429688	53.95620727539064	-1005.33056640625	-190.7320251464844	65.16195678710939	-1047.549438476563	-323.4479675292969	121.9579544067383	-987.6242675781252	-140.664535522461	836.5791015625002	-817.7907714843752	-74.0906219482422	827.9589843750002	-820.0065917968752	-52.3168182373047	852.8291625976565	-827.9195556640627	-36.76173400878907	754.0193481445314	-827.620300292969	6.97167491912842	705.0744018554689	-826.7467041015627	35.68044662475587	704.3871459960939	-955.082458496094	123.9881973266602	617.8275756835939	-841.919372558594	112.3646316528321	519.0407714843751	-803.7144775390627	150.0906829833985	536.8585205078126	-826.1323852539065	176.3320617675782	500.298797607422	-864.8735961914065	218.0213470458985	312.5608215332032	-815.3259277343752	232.8688659667969	330.7770996093751	-904.1347656250002	189.3379211425782	240.7003936767579	-869.2376098632815	380.8515625000001	365.6143493652344	-866.1011962890627	378.6352233886719	364.4173889160157	-827.464294433594	376.2167358398438	334.6317138671876	-780.8069458007815	nan	nan	nan	
522	2.605	-359.4847106933594	1838.369506835938	-1020.146057128906	-495.7084960937501	1729.601806640625	-1094.781616210938	-502.5644531250001	1718.466674804688	-948.5438232421877	-536.0004272460939	1573.50390625	-1043.3056640625	-487.2942810058595	1236.271484375	-1051.424560546875	-367.9333190917969	1548.055053710938	-1035.244018554688	-386.1811828613282	1592.833129882813	-1207.223388671875	-204.1300354003907	1547.859375	-1299.48876953125	-177.0967254638672	1579.248657226563	-1271.419799804688	-134.7754364013672	1547.041625976563	-1301.231811523438	-70.60057067871095	1556.637329101563	-1292.51904296875	-66.65415191650392	1487.042358398438	-1265.412963867188	209.6437988281251	1588.243896484375	-1150.280029296875	221.4058685302735	1592.855346679688	-1228.453491210938	308.2621765136719	1615.959228515625	-1150.305541992188	-387.8450317382814	1563.91943359375	-868.7893066406252	-227.6259765625001	1520.607421875	-766.4207153320314	-201.6511383056641	1550.555908203125	-796.8469238281252	-157.7913208007813	1523.741577148438	-764.3195800781251	-92.11287689208986	1533.025512695313	-773.1818847656252	-86.67842864990236	1459.812133789063	-803.2623291015627	202.4804840087891	1572.52880859375	-802.6691894531252	286.5689392089844	1582.11669921875	-884.750427246094	-256.4303588867188	1067.82861328125	-1170.553833007813	-291.1893615722657	1101.32421875	-890.5939941406252	-479.698455810547	1130.095947265625	-1049.772705078125	-478.7122497558595	1099.401733398438	-1077.452026367188	-487.1285705566407	1097.1728515625	-1022.62109375	-302.0381774902344	838.3114013671877	-1203.442138671875	-270.1818237304688	761.6427612304689	-1189.088745117188	-223.8877716064454	768.0015258789065	-1183.3974609375	-297.4537353515626	710.1597900390626	-1172.919311523438	-266.2094116210938	565.6775512695314	-1133.009643554688	-265.4953308105469	556.4532470703126	-999.3420410156252	-259.4459838867188	347.0876159667969	-1038.140869140625	-286.3538513183594	297.8800659179688	-1107.215576171875	-259.1948852539063	295.9190368652344	-1068.7626953125	-278.0744323730469	222.5695190429688	-1031.11572265625	-345.1585083007813	106.4447250366211	-1074.438354492188	-405.738250732422	76.94404602050783	-1022.581298828125	-195.5791168212891	53.99709701538087	-1005.327026367188	-190.6476440429688	65.16309356689455	-1047.578369140625	-323.3578186035157	121.9741363525391	-987.6001586914065	-140.541748046875	836.400329589844	-817.839294433594	-73.9277801513672	827.615905761719	-820.037780761719	-52.08692932128908	852.184997558594	-828.0701904296877	-36.75556945800782	753.6890869140626	-827.5147705078127	6.580819129943849	704.4821166992189	-826.6716308593752	35.08227920532227	703.3199462890626	-954.910095214844	122.6891098022461	616.1751708984376	-842.098571777344	109.9108352661133	517.3338012695314	-803.597595214844	147.9172515869141	534.9114990234376	-825.953063964844	173.6142578125	497.654510498047	-864.604431152344	213.0446166992188	309.8748474121094	-814.7617187500002	227.9927673339844	327.5007019042969	-903.9446411132815	183.018798828125	237.9590759277344	-868.8970947265627	376.5427246093751	360.7388305664063	-866.558044433594	374.3791809082032	359.1465148925782	-827.9839477539065	371.5086364746094	329.3897094726563	-781.3775634765627	nan	nan	nan	
